<svg xmlns="http://www.w3.org/2000/svg" viewBox="0 0 32 32">
  <!-- Background -->
  <rect width="32" height="32" rx="7" fill="#0b1519"/>

  <!-- Gold accent bar top-left -->
  <rect x="5" y="5" width="10" height="2" rx="1" fill="#d4b595" opacity="0.9"/>

  <!-- M -->
  <path d="M5 11 L5 22 L7 22 L7 15 L10 20 L13 15 L13 22 L15 22 L15 11 L10 18 Z" fill="#f0f4f8"/>

  <!-- B -->
  <path d="M17 11 L17 22 L22 22 C24.2 22 25.5 20.9 25.5 19.2 C25.5 18.1 24.9 17.2 24 16.7 C24.7 16.2 25.1 15.4 25.1 14.5 C25.1 12.6 23.8 11 21.7 11 Z M19 13 L21.5 13 C22.6 13 23.2 13.7 23.2 14.6 C23.2 15.5 22.6 16.2 21.5 16.2 L19 16.2 Z M19 18 L21.8 18 C23 18 23.6 18.8 23.6 19.8 C23.6 20.8 23 21.5 21.8 21.5 L19 21.5 Z" fill="#d4b595"/>

  <!-- Dot accent -->
  <circle cx="27" cy="6" r="2" fill="#d4b595" opacity="0.6"/>
</svg>
